<svg width="66" height="67" viewBox="0 0 66 67" fill="none" xmlns="http://www.w3.org/2000/svg">
<path d="M32.6777 65.991C50.4867 65.991 64.9355 51.319 64.9355 33.2058C64.9355 15.0927 50.4866 0.420662 32.6777 0.420662C14.869 0.420813 0.420961 15.0928 0.420898 33.2058C0.420898 51.3189 14.8689 65.9908 32.6777 65.991Z" fill="#1E1E1E" stroke="#1E1E1E" stroke-width="0.841228"/>
<path d="M39.3649 17.4235C37.7796 17.8483 36.8389 19.4777 37.2636 21.063L37.7743 22.9687C38.9144 27.2237 34.3409 30.7331 30.5259 28.5305L22.7613 24.0476C21.3401 23.2271 19.5229 23.714 18.7024 25.1351C17.8819 26.5563 18.3688 28.3735 19.79 29.194L42.5984 42.3624C44.0196 43.1829 45.8368 42.696 46.6573 41.2749L48.1394 38.7077C48.1413 38.7044 48.1402 38.7001 48.1368 38.6982L48.1326 38.6957C48.1287 38.6935 48.1295 38.6878 48.1338 38.6866C48.1364 38.6859 48.138 38.6832 48.1373 38.6806L43.0045 19.5248C42.5797 17.9395 40.9502 16.9987 39.3649 17.4235ZM25.9947 48.9865C24.4095 49.4113 22.78 48.4705 22.3552 46.8852C21.9304 45.2999 22.8712 43.6704 24.4565 43.2457L34.9425 40.4359C36.5278 40.0112 38.1573 40.9519 38.5821 42.5372C39.0069 44.1225 38.0661 45.752 36.4808 46.1768L25.9947 48.9865Z" fill="white"/>
</svg>
