<svg width="66" height="67" viewBox="0 0 66 67" fill="none" xmlns="http://www.w3.org/2000/svg">
<path d="M32.6777 66.0081C50.4866 66.0081 64.9355 51.3322 64.9355 33.2141C64.9354 15.0963 50.4865 0.420197 32.6777 0.420197C14.8691 0.420347 0.421085 15.0964 0.420898 33.2141C0.420898 51.3321 14.869 66.0079 32.6777 66.0081Z" fill="#0049FF" stroke="#0049FF" stroke-width="0.841228"/>
<path d="M37.9273 17.8154C37.1362 18.0274 36.6667 18.8406 36.8787 19.6317L39.9381 31.0495C40.28 32.3257 38.9083 33.3783 37.7641 32.7177L21.4706 23.3106C20.7613 22.9011 19.8543 23.1441 19.4448 23.8534L17.9561 26.4319C17.5466 27.1412 17.7896 28.0481 18.4989 28.4577L43.8888 43.1165C44.5981 43.526 45.505 43.283 45.9146 42.5737L48.1412 38.717C48.1432 38.7136 48.142 38.7094 48.1387 38.7074L48.1344 38.705C48.1306 38.7028 48.1313 38.697 48.1356 38.6959C48.1382 38.6952 48.1398 38.6925 48.1391 38.6898L42.6202 18.0933C42.4082 17.3021 41.5951 16.8326 40.8039 17.0446L37.9273 17.8154ZM24.5554 49.3825C23.7643 49.5945 22.9511 49.125 22.7391 48.3339L21.9683 45.4572C21.7563 44.6661 22.2258 43.8529 23.0169 43.6409L36.381 40.06C37.1721 39.848 37.9853 40.3175 38.1973 41.1087L38.9681 43.9853C39.18 44.7764 38.7105 45.5896 37.9194 45.8016L24.5554 49.3825Z" fill="white"/>
</svg>
