<svg width="38" height="37" viewBox="0 0 38 37" fill="none" xmlns="http://www.w3.org/2000/svg">
<ellipse cx="18.9299" cy="18.2688" rx="18.9299" ry="18.2688" fill="#0049FF"/>
<path d="M18.9325 18.9155C23.7541 18.9155 27.6955 14.9993 27.6955 10.2086C27.6955 5.41789 23.7541 1.50171 18.9325 1.50171C14.1109 1.50171 10.1696 5.41789 10.1696 10.2086C10.1696 14.9993 14.111 18.9155 18.9325 18.9155Z" fill="white"/>
<path d="M33.9713 25.8731C33.7417 25.3028 33.4356 24.7705 33.0912 24.2762C31.3309 21.6907 28.6141 19.9798 25.5528 19.5616C25.1702 19.5236 24.7492 19.5995 24.4431 19.8277C22.8359 21.0064 20.9226 21.6147 18.9327 21.6147C16.9428 21.6147 15.0295 21.0064 13.4223 19.8277C13.1161 19.5995 12.6952 19.4855 12.3126 19.5616C9.25125 19.9798 6.49609 21.6907 4.77412 24.2762C4.42972 24.7705 4.12356 25.3409 3.89402 25.8731C3.77924 26.1013 3.81748 26.3674 3.93225 26.5956C4.23841 27.1278 4.62104 27.6602 4.96543 28.1164C5.50114 28.8389 6.07516 29.4852 6.72571 30.0935C7.26142 30.6258 7.87367 31.1201 8.48599 31.6144C11.509 33.8577 15.1443 35.0363 18.8944 35.0363C22.6445 35.0363 26.2799 33.8576 29.3029 31.6144C29.9151 31.1581 30.5274 30.6258 31.0632 30.0935C31.6754 29.4852 32.2877 28.8388 32.8234 28.1164C33.2061 27.6221 33.5505 27.1278 33.8566 26.5956C34.0479 26.3674 34.0861 26.1012 33.9713 25.8731Z" fill="white"/>
</svg>
