<svg width="148" height="110" viewBox="0 0 148 110" fill="none" xmlns="http://www.w3.org/2000/svg">
<path d="M6.57919 104.289V100.103H17.4031V97.2451H12.1149C9.96963 97.2451 8.40943 96.7951 7.4343 95.895C6.47417 94.9948 5.99411 93.6072 5.99411 91.7319C5.99411 89.8417 6.47417 88.439 7.4343 87.5239C8.40943 86.6087 9.96963 86.1512 12.1149 86.1512H21.2286V90.3592H11.0123V93.1496H16.278C18.4232 93.1496 19.976 93.5922 20.9361 94.4773C21.9112 95.3474 22.3988 96.7351 22.3988 98.6403C22.3988 100.531 21.9112 101.948 20.9361 102.893C19.976 103.824 18.4232 104.289 16.278 104.289H6.57919ZM31.192 104.289C30.0668 104.289 29.1217 104.206 28.3566 104.041C27.6065 103.861 26.9989 103.568 26.5339 103.163C26.0838 102.743 25.7613 102.188 25.5662 101.498C25.3712 100.808 25.2737 99.938 25.2737 98.8879V93.9822H23.1809V90.4943H25.2737V86.6237H29.9543V90.4943H33.8698V93.9822H29.9543V100.823H33.8698V104.289H31.192ZM42.0551 104.289C40.945 104.289 39.9998 104.199 39.2197 104.019C38.4396 103.824 37.802 103.501 37.307 103.051C36.8119 102.601 36.4519 102.008 36.2268 101.273C36.0018 100.538 35.8893 99.623 35.8893 98.5278V90.4943H40.5699V100.823H45.4306V90.4943H50.1112V104.289H42.0551ZM61.864 93.9822H56.9359V100.823H61.864V93.9822ZM58.4211 104.289C57.3109 104.289 56.3658 104.199 55.5857 104.019C54.8056 103.824 54.168 103.501 53.673 103.051C53.1779 102.601 52.8179 102.008 52.5928 101.273C52.3678 100.538 52.2553 99.623 52.2553 98.5278V96.1425C52.2553 95.0474 52.3678 94.1397 52.5928 93.4196C52.8179 92.6845 53.1779 92.107 53.673 91.6869C54.168 91.2519 54.8056 90.9443 55.5857 90.7643C56.3658 90.5843 57.3109 90.4943 58.4211 90.4943H61.864V86.1512H66.5447V104.289H58.4211ZM84.5351 86.1512V90.3592H78.7293V104.289H73.6211V90.3592H67.8154V86.1512H84.5351ZM85.4763 93.7572V95.94H90.4045V93.7572H85.4763ZM85.4763 98.9779V100.823H94.6351V104.289H87.2091C86.0989 104.289 85.1538 104.199 84.3737 104.019C83.5936 103.824 82.956 103.501 82.4609 103.051C81.9659 102.601 81.6058 102.008 81.3808 101.273C81.1558 100.538 81.0433 99.623 81.0433 98.5278V96.03C81.0433 94.9348 81.1558 94.0272 81.3808 93.3071C81.6058 92.572 81.9659 91.987 82.4609 91.5519C82.956 91.1168 83.5936 90.8168 84.3737 90.6518C85.1538 90.4718 86.0989 90.3817 87.2091 90.3817H88.6718C89.7819 90.3817 90.727 90.4793 91.5071 90.6743C92.2872 90.8543 92.9248 91.1693 93.4199 91.6194C93.915 92.0695 94.275 92.662 94.5 93.3971C94.7251 94.1322 94.8376 95.0474 94.8376 96.1425V98.9779H85.4763ZM105.87 98.8654H101.099V101.161H105.87V98.8654ZM100.784 104.289C99.4792 104.289 98.459 103.951 97.7239 103.276C96.9888 102.601 96.6213 101.573 96.6213 100.193V99.833C96.6213 98.4378 96.9738 97.4102 97.6789 96.7501C98.384 96.075 99.4192 95.7374 100.784 95.7374H105.87V93.9822H97.8139V90.4943H105.78C107.43 90.4943 108.638 90.8768 109.403 91.6419C110.168 92.407 110.551 93.6147 110.551 95.2649V104.289H100.784ZM124.48 93.9822H117.369V100.823H124.48V104.289H118.854C117.744 104.289 116.799 104.199 116.018 104.019C115.238 103.824 114.601 103.501 114.106 103.051C113.611 102.601 113.251 102.008 113.026 101.273C112.801 100.538 112.688 99.623 112.688 98.5278V96.1425C112.688 95.0474 112.801 94.1397 113.026 93.4196C113.251 92.6845 113.611 92.107 114.106 91.6869C114.601 91.2519 115.238 90.9443 116.018 90.7643C116.799 90.5843 117.744 90.4943 118.854 90.4943H124.48V93.9822ZM136.299 104.289V93.9822H131.439V104.289H126.758V86.1512H131.439V90.4943H136.209C137.86 90.4943 139.067 90.8768 139.832 91.6419C140.598 92.407 140.98 93.6147 140.98 95.2649V104.289H136.299Z" fill="white"/>
<path d="M5.16162 79.3901V61.5024H31.2676L47.7049 75.7642V79.3901H5.16162Z" fill="white"/>
<path d="M56.9961 66.7265C56.2985 67.2045 55.3573 67.1321 54.7531 66.5404L17.0122 29.5761C16.3356 28.9134 16.3088 27.8328 16.9517 27.1374L26.4209 16.8952C27.0898 16.1717 28.2237 16.1426 28.9287 16.8308L61.1208 48.2514C62.2295 49.3335 64.0938 48.548 64.0938 46.9988V1.75034C64.0938 0.783652 64.8774 0 65.8441 0H80.2291C81.1958 0 81.9794 0.783654 81.9794 1.75034V46.9752C81.9794 48.528 83.8513 49.3119 84.9578 48.2224L116.88 16.7924C117.565 16.1182 118.665 16.1221 119.345 16.8012L129.421 26.8635C130.112 27.554 130.105 28.6767 129.404 29.3575L91.1575 66.5093C90.5549 67.0946 89.6211 67.1666 88.9263 66.6946C76.3661 58.162 69.5906 58.0971 56.9961 66.7265Z" fill="white"/>
<path d="M99.0302 75.7642L113.559 61.5024H141.762V79.3901H101.024L99.0302 75.7642Z" fill="white"/>
</svg>
