<svg width="44" height="36" viewBox="0 0 44 36" fill="none" xmlns="http://www.w3.org/2000/svg">
<path d="M24.7461 35.8203V25.9082C24.7461 20.7129 25.3613 16.4518 26.5918 13.125C27.8678 9.79818 30.0098 6.97266 33.0176 4.64844C36.0254 2.32422 39.4434 0.77474 43.2715 0V7.92969C40.5827 9.47917 39.056 11.5527 38.6914 14.1504H43.2715V35.8203H24.7461ZM0 35.8203V25.9082C0 20.7129 0.615234 16.4518 1.8457 13.125C3.12174 9.79818 5.26367 6.97266 8.27148 4.64844C11.3249 2.32422 14.7428 0.77474 18.5254 0V7.92969C15.8366 9.47917 14.3099 11.5527 13.9453 14.1504H18.5254V35.8203H0Z" fill="#1E1E1E"/>
</svg>
