<svg width="46" height="46" viewBox="0 0 46 46" fill="none" xmlns="http://www.w3.org/2000/svg">
<path d="M22.6101 0.0131073C22.4848 0.107357 22.4096 0.555042 22.4096 1.02629C22.4096 1.49753 22.184 3.35896 21.9082 5.17325C20.3792 15.093 18.1483 18.4388 11.656 20.5123C9.42512 21.2192 2.4817 22.4915 0.852377 22.4915C-0.551347 22.4915 -0.125216 22.9157 1.42891 23.057C2.28117 23.1513 4.28649 23.434 5.86568 23.6932C16.7947 25.484 19.7275 28.2879 21.6325 38.7967C21.9082 40.3282 22.2341 42.4253 22.3093 43.462C22.4096 44.4987 22.56 45.4177 22.6853 45.4648C22.7856 45.5355 22.936 44.97 23.0362 44.2396C23.5376 40.0219 24.5653 34.7204 25.217 32.9768C25.9941 30.9268 27.1471 29.089 28.3503 27.958C30.9071 25.5311 35.9956 23.9524 44.042 23.057C44.819 22.9864 45.4707 22.8214 45.4707 22.7272C45.4707 22.6329 44.7188 22.4915 43.7913 22.3973C42.8388 22.303 40.8585 22.0203 39.3295 21.7611C28.2501 19.829 25.3925 16.8837 23.688 5.6445C23.3872 3.68883 23.0613 1.59178 22.961 0.979164C22.8608 0.342979 22.7104 -0.0811424 22.6101 0.0131073Z" fill="#0049FF"/>
</svg>
