<svg width="658" height="563" viewBox="0 0 658 563" fill="none" xmlns="http://www.w3.org/2000/svg">
<rect x="89.4258" y="109.053" width="483.799" height="381.066" fill="#E5E5E5"/>
<path d="M455.527 0.370024C452.939 1.07225 443.988 7.67317 442.939 9.70962C441.61 12.2376 441.61 17.2234 442.939 19.5408C444.827 22.8412 444.268 24.2457 439.792 27.7568C435.946 30.7764 434.407 32.251 436.505 31.0573C438.113 30.0741 468.115 9.56917 468.744 9.00739C469.653 8.0945 465.667 2.96826 462.8 1.35314C460.282 -0.0513115 458.394 -0.332201 455.527 0.370024Z" fill="#0049FF"/>
<path d="M462.451 20.8048L451.891 28.2484L455.108 34.9898C458.324 41.7311 458.884 45.172 457.905 51.8432C457.695 53.2476 458.115 53.8094 460.422 55.0734C461.961 55.9161 464.199 56.829 465.458 57.1099C467.556 57.5312 467.835 57.3205 470.003 54.0201C471.892 51.0707 472.941 50.2281 476.157 49.0343C478.255 48.2618 481.333 47.1383 483.011 46.5063C485.668 45.5231 485.948 45.172 485.948 42.9249C485.948 41.5907 485.319 38.2902 484.48 35.692C483.081 31.1275 483.081 30.7764 484.2 28.3888C485.598 25.5097 485.249 24.7373 482.382 24.1053C480.214 23.6137 477.836 20.875 475.108 15.819C474.339 14.4146 473.57 13.2208 473.36 13.291C473.15 13.291 468.255 16.7319 462.451 20.8048Z" fill="#0049FF"/>
<path d="M132.995 58.2334C131.736 58.5845 130.687 59.1463 130.687 59.4272C130.687 59.7081 131.806 66.309 133.134 74.1739C134.463 81.9686 135.582 88.7802 135.582 89.342C135.582 89.974 133.834 90.5358 130.197 91.0976C123.134 92.2211 119.497 93.2042 119.497 93.9065C119.497 94.8193 124.672 95.9429 131.246 96.5047C135.372 96.8558 136.981 97.2069 136.981 97.9091C136.981 98.4709 136.771 98.8923 136.491 98.8923C134.183 98.8923 122.854 100.507 121.106 101.069C116.56 102.544 118.728 103.878 128.938 105.915C132.435 106.617 137.121 107.389 139.428 107.67C143.065 108.162 144.044 108.583 146.911 111.251L150.198 114.341H172.297C186.493 114.341 194.326 114.06 194.326 113.639C194.326 113.218 193.906 112.937 193.417 112.937C192.298 112.937 182.158 106.827 177.332 103.316C174.255 100.999 174.045 100.718 175.094 99.6647C175.654 98.9625 176.143 97.8389 176.143 97.0665C176.073 95.3811 171.108 89.7633 169.57 89.7633C167.961 89.7633 168.171 92.2913 169.919 94.5385C170.968 95.9429 171.108 96.5047 170.409 96.7154C169.01 97.2069 157.331 84.2157 156.842 81.4771C156.422 79.2299 157.052 70.9437 157.751 68.7668C158.101 67.9241 157.961 67.8539 157.331 68.4157C156.842 68.837 155.303 72.2779 153.835 76.1402C152.366 79.9322 150.828 83.1624 150.478 83.2326C150.058 83.3731 149.079 82.8815 148.17 82.1793L146.632 80.9153L148.799 75.789C151.737 68.837 152.156 66.0281 150.548 62.7277C148.73 58.7952 146.002 57.461 140.128 57.5312C137.47 57.5312 134.183 57.8823 132.995 58.2334Z" fill="#0049FF"/>
<path d="M476.088 68.4156L470.004 74.525L463.5 69.7499L456.926 65.0449L452.73 65.4663C444.478 66.309 435.177 72.629 431.61 79.9321C430.701 81.6877 428.254 88.1482 426.086 94.3277C422.379 104.931 413.847 128.877 412.938 131.265C412.659 131.827 411.54 132.88 410.351 133.582C407.833 135.057 404.896 134.635 402.868 132.388C402.099 131.546 399.301 124.594 396.714 116.939C391.399 101.631 392.238 102.684 386.993 104.159C385.734 104.51 385.245 103.667 382.517 95.2406C377.552 80.213 377.832 80.4237 376.783 88.429C375.944 95.3109 375.664 96.0833 373.776 96.0833C372.936 96.0833 367.342 93.6957 361.467 90.8166C355.593 87.9375 350.348 85.5499 349.789 85.5499C347.97 85.5499 348.949 86.9544 353.075 90.1144C356.992 93.134 358.111 94.8193 356.642 95.662C356.362 95.8726 353.565 94.8193 350.488 93.3446C339.928 88.2184 339.229 88.8504 347.691 95.8024C354.404 101.42 353.845 102.263 345.593 99.2433C342.795 98.19 340.208 97.558 339.928 97.8389C339.648 98.1198 341.047 99.8051 343.075 101.561C346.222 104.37 347.061 105.704 348.879 110.76C351.257 117.571 351.537 117.08 344.544 119.397C341.886 120.24 339.788 121.293 339.788 121.644C339.788 122.066 340.907 125.577 342.306 129.439C343.704 133.301 346.781 142.149 349.229 149.101C351.607 156.053 354.614 164.55 355.733 167.921C358.67 176.348 361.118 180.561 365.663 185.196C372.447 192.077 381.538 195.799 391.539 195.799C401.679 195.729 409.372 192.569 416.785 185.266C423.009 179.157 425.456 174.03 430.352 156.826C432.52 149.101 436.016 136.953 438.114 129.79C440.212 122.627 442.1 116.237 442.31 115.535C442.66 114.411 445.108 114.341 480.284 114.341C500.984 114.341 518.048 114.13 518.258 113.92C518.817 113.428 518.188 112.094 507.488 90.8166C497.627 71.2948 495.46 68.2752 487.907 64.5534C485.529 63.3596 483.291 62.3765 482.872 62.3765C482.452 62.3765 479.375 65.1152 476.088 68.4156Z" fill="#0049FF"/>
<path d="M589.45 81.4771C584.625 88.0078 580.849 90.7464 582.457 86.6033C583.576 83.5837 581.967 84.6371 578.82 88.8504C575.184 93.8362 574.974 94.0469 558.19 109.566C555.812 111.743 554.064 113.709 554.274 113.92C554.554 114.131 558.4 114.341 562.946 114.341C572.736 114.341 572.177 113.639 571.967 125.085C571.687 138.357 571.477 138.006 575.534 130.843C579.52 123.821 594.975 93.0638 596.723 88.7802C597.353 87.3055 597.842 85.4797 597.842 84.7073C597.842 82.6006 596.164 84.2157 593.856 88.4291C592.877 90.3251 591.758 91.87 591.408 91.87C590.569 91.87 590.639 91.5189 593.297 86.2522C594.625 83.5837 595.744 81.126 595.744 80.9153C595.744 80.0726 592.388 83.5135 590.429 86.3224C587.422 90.6762 587.003 89.4824 589.73 84.4966C591.129 81.9686 592.248 79.7215 592.248 79.5811C592.248 78.5979 590.919 79.5108 589.45 81.4771Z" fill="#0049FF"/>
<path d="M61.2543 88.4537C54.191 90.2795 48.6663 93.5799 43.4213 98.8466C37.5469 104.745 34.4699 110.293 33.0013 117.666C31.6026 124.337 31.6026 127.708 32.9313 133.888C36.2881 149.828 48.8062 161.345 65.6601 163.943L70.6953 164.715L75.5207 169.912C78.1781 172.791 80.4859 174.968 80.6957 174.757C80.9055 174.546 81.6049 171.667 82.2343 168.226L83.3532 162.117L86.6401 160.572L89.9269 158.957V137.188V115.419H97.8993C102.305 115.419 106.082 115.138 106.291 114.857C106.921 113.804 103.424 106.431 100.207 102.217C91.2557 90.5603 74.9612 84.8021 61.2543 88.4537Z" fill="#0049FF"/>
<path d="M250.693 105.563C249.644 106.125 246.427 108.021 243.7 109.777C240.903 111.532 238.245 112.937 237.826 112.937C237.336 112.937 236.986 113.218 236.986 113.639C236.986 114.06 242.581 114.341 252.372 114.341C267.128 114.341 267.757 114.271 267.757 113.007C267.757 112.234 267.477 111.392 267.058 111.181C265.869 110.409 266.288 108.723 267.687 108.723C270.624 108.723 270.834 110.338 269.226 118.835C266.918 131.335 267.477 135.478 271.603 137.234C274.121 138.287 276.079 137.866 280.625 135.478C283.632 133.933 285.52 134.355 286.289 136.812C286.919 138.919 289.436 138.638 289.436 136.531C289.436 133.863 288.737 132.599 286.569 131.546C283.842 130.071 282.443 130.211 278.597 132.318C272.093 135.759 270.554 133.512 272.373 123.119C274.401 111.251 274.401 109.355 272.373 107.108C270.484 105.072 266.848 104.51 264.26 105.914C263.351 106.406 262.232 106.266 260.484 105.563C257.337 104.229 253.281 104.229 250.693 105.563Z" fill="#0049FF"/>
<path d="M113.134 137.374C109.847 140.113 112.015 145.941 116.421 145.941C118.728 145.941 120.896 143.554 120.896 141.026C120.896 136.812 116.421 134.706 113.134 137.374Z" fill="#0049FF"/>
<path d="M129.289 137.655C127.4 139.691 127.54 142.5 129.498 144.396C131.596 146.433 133.834 146.363 135.932 144.186C138.03 142.079 138.1 140.394 136.212 137.936C134.394 135.619 131.317 135.478 129.289 137.655Z" fill="#0049FF"/>
<path d="M145.443 137.936C144.604 138.989 143.975 140.394 143.975 141.166C143.975 142.992 147.052 145.941 149.08 145.941C151.388 145.941 153.765 143.483 153.765 141.026C153.765 136.461 148.241 134.425 145.443 137.936Z" fill="#0049FF"/>
<path d="M100.195 197.133C98.4468 198.187 97.1181 198.397 93.2018 198.117C89.0757 197.836 87.9568 198.046 85.2294 199.451C80.6838 201.909 77.8864 206.684 77.9564 211.88C78.0263 216.234 78.8655 218.27 81.8027 221.43C83.8308 223.607 83.8308 223.607 83.9706 233.719C84.1105 242.006 83.9007 244.604 82.8517 247.623C82.1524 249.66 81.8027 252.118 82.0125 253.031C82.572 255.348 87.5372 257.595 92.0829 257.595C96.2789 257.595 97.8174 256.05 97.8174 251.837C97.8174 248.607 99.3559 247.764 105.09 247.764C109.916 247.764 113.413 246.289 114.531 243.761C115.091 242.708 115.65 239.267 115.86 236.177C116.07 232.526 116.56 230.138 117.259 229.295C118.238 228.242 118.238 227.961 117.259 226.838C115.72 225.082 114.811 213.355 116.21 213.355C118.238 213.355 127.189 211.108 127.189 210.546C127.189 210.054 118.448 203.173 111.175 197.976C107.538 195.378 103.552 195.097 100.195 197.133Z" fill="#0049FF"/>
<path d="M562.246 220.939L556.371 222.835L558.749 224.661L561.127 226.486L556.441 233.439C553.923 237.301 550.567 242.146 549.098 244.253C547.629 246.359 545.322 249.8 543.993 251.907L541.615 255.699L543.573 257.384C545.182 258.789 546.161 259 549.658 258.859C553.784 258.719 553.784 258.719 556.931 262.16C558.679 263.985 560.078 266.092 560.078 266.794C560.078 268.269 561.476 268.831 565.393 268.831C567.421 268.831 568.609 269.182 568.889 269.814C569.589 271.64 573.785 273.114 576.792 272.623C579.449 272.201 579.799 272.342 582.736 275.432C585.813 278.521 586.023 278.662 590.009 278.662C593.785 278.662 594.415 278.872 596.303 280.909L598.471 283.086L599.24 281.049C604.415 267.075 604.835 265.6 604.835 262.23C604.835 258.368 603.296 256.401 598.751 254.365L594.974 252.679L595.464 244.393C595.953 235.264 595.394 232.315 592.527 228.804C590.289 226.135 587.002 225.152 580.638 225.152C576.022 225.152 575.463 225.012 575.463 223.748C575.463 221.711 572.316 218.973 570.078 218.973C569.029 219.043 565.462 219.886 562.246 220.939ZM562.176 244.253C562.176 244.604 561.756 244.955 561.197 244.955C560.637 244.955 559.938 244.604 559.728 244.253C559.518 243.831 559.938 243.551 560.707 243.551C561.546 243.551 562.176 243.831 562.176 244.253Z" fill="#0049FF"/>
<path d="M49.0047 261.598C44.3891 266.584 37.4657 274.308 33.5494 278.873C25.647 288.072 25.647 288.072 30.2626 292.215C33.4795 295.164 43.1303 299.729 47.1165 300.15L50.6132 300.501L53.6902 294.883C55.4386 291.723 56.9771 289.195 57.2568 289.195C57.5366 289.195 59.9143 299.026 62.5717 311.034C68.2363 336.876 67.1873 335.191 77.4675 334.98C81.174 334.91 85.3001 334.629 86.6288 334.278L89.0764 333.716L89.2862 304.153L89.4261 274.659L86.6987 272.833C85.1602 271.78 81.174 268.55 77.8172 265.6C69.0755 257.946 64.9495 254.997 61.5227 253.733C59.8443 253.171 58.2359 252.68 57.9562 252.68C57.6065 252.68 53.6203 256.682 49.0047 261.598Z" fill="#0049FF"/>
<path d="M485.529 358.716C480.214 362.227 475.808 365.457 475.878 365.948C475.948 366.44 486.088 381.819 498.536 400.147C525.53 439.963 525.6 440.103 524.272 438.769C523.153 437.646 515.74 426.972 500.285 404.009C495.319 396.636 489.025 387.366 486.298 383.293C469.934 359.207 466.367 353.8 466.367 353.308C466.367 353.028 468.115 355.275 470.213 358.364C472.381 361.454 474.479 364.052 474.969 364.193C475.458 364.263 479.934 361.665 484.899 358.364C489.934 355.134 494.27 352.396 494.62 352.396C494.97 352.396 490.913 355.275 485.529 358.716Z" fill="#0049FF"/>
<path fill-rule="evenodd" clip-rule="evenodd" d="M454.548 307.594L464.968 306.751H467.626C469.024 306.751 472.171 307.172 474.619 307.734L482.521 308.787C482.521 309.659 484.27 310.473 487.277 311.947C493.501 314.967 500.424 320.234 504.76 325.29C509.306 330.556 551.755 394.95 554.133 400.147C555.252 402.675 556.301 404.852 556.371 404.992C556.441 405.133 559.938 404.15 564.064 402.745C568.19 401.341 576.022 399.093 581.407 397.689C593.785 394.459 594.624 394.178 597.142 391.299C600.709 387.226 601.408 383.153 600.569 372.479C600.149 367.423 599.73 363.21 599.66 363.069C599.31 362.788 588.051 361.314 587.841 361.595C587.771 361.735 585.114 368.336 581.967 376.271C576.372 390.386 576.232 390.667 574.134 390.877C572.735 391.018 571.966 390.807 571.966 390.175C571.966 389.684 571.896 366.51 571.896 338.702V288.142L574.204 288.353C577.91 288.774 591.897 292.496 594.415 293.83C595.673 294.462 598.331 296.569 600.359 298.465C603.926 301.835 604.065 301.906 606.723 301.203C611.059 299.939 614.835 300.29 617.423 301.976C620.15 303.872 620.43 304.434 637.144 346.427C659.802 403.237 657.494 396.846 657.564 404.009C657.634 409.627 657.425 410.821 655.606 414.542C653.089 419.669 648.263 424.584 643.648 426.761C641.759 427.674 634.067 429.781 626.514 431.536C619.031 433.222 607.982 435.75 602.037 437.084C596.093 438.488 586.302 440.665 580.358 441.999C569.239 444.387 567.77 445.159 567.77 448.179C567.77 450.005 570.148 455.061 573.994 461.592C575.533 464.26 576.861 466.718 576.861 466.999C576.861 467.771 574.204 467.701 572.665 466.858C571.896 466.437 568.749 462.926 565.532 458.993L559.728 451.831L558.469 456.255C557.14 460.679 557.14 460.679 558.609 465.664C559.448 468.473 560.077 471.282 560.077 471.914C560.077 473.951 557.56 473.389 555.672 471.001L553.923 468.754L552.734 470.791C542.314 487.855 537.979 492.138 515.74 507.025C507.418 512.643 503.082 515.171 502.732 514.61C498.326 507.517 474.549 472.476 474.269 472.757C474.06 472.897 472.451 476.689 470.773 481.043C464.619 496.352 456.716 509.554 446.296 521.702C439.513 529.637 428.393 540.451 426.155 541.294C424.267 541.996 421.4 540.943 416.015 537.432C400.35 527.25 378.531 501.689 375.314 489.821L374.475 486.521L381.048 479.99C395.245 465.945 404.756 448.46 410.141 426.48C414.057 410.54 415.176 385.049 412.518 373.462C405.525 342.775 424.197 313.492 454.548 307.594ZM475.878 365.948C475.808 365.457 480.214 362.227 485.529 358.716C490.913 355.275 494.97 352.396 494.62 352.396C494.27 352.396 489.934 355.134 484.899 358.364C479.934 361.665 475.458 364.263 474.969 364.193C474.479 364.052 472.381 361.454 470.213 358.364C468.115 355.275 466.367 353.028 466.367 353.308C466.367 353.8 469.934 359.207 486.298 383.293C489.025 387.366 495.319 396.636 500.285 404.009C515.74 426.972 523.153 437.646 524.272 438.769C525.6 440.103 525.53 439.963 498.536 400.147C486.088 381.819 475.948 366.44 475.878 365.948Z" fill="#0049FF"/>
<path fill-rule="evenodd" clip-rule="evenodd" d="M60.3775 518.091L62.2809 519.987C62.2809 519.987 60.3271 519.356 59.8449 518.763C59.8365 518.753 59.8284 518.742 59.8209 518.732C59.6499 518.497 59.7218 518.269 60.2529 518.091L60.8123 513.386L60.3775 518.091ZM73.8556 520.33C71.916 520.319 70.7344 520.314 69.6357 520.338L101.024 519.636C113.682 519.285 109.982 520.268 91.5194 520.338C82.3269 520.379 77.3629 520.35 74.2553 520.332C74.1185 520.331 73.9854 520.331 73.8556 520.33ZM64.7638 515.54C64.8879 514.663 64.8923 514.632 65.4979 514.159L64.7486 515.648C64.7539 515.611 64.7589 515.575 64.7638 515.54Z" fill="#0049FF"/>
<path fill-rule="evenodd" clip-rule="evenodd" d="M16.1949 317.044C22.8386 303.421 24.3072 301.384 27.3842 301.103C33.888 300.471 41.7206 303.21 43.5388 306.721C44.378 308.407 44.3081 309.671 42.4898 318.8C41.3709 324.417 40.1121 332.423 39.6226 336.636L38.7834 344.29L41.4408 346.608C45.7767 350.329 63.5397 357.492 83.3308 363.391L89.415 365.217V431.577V497.867H128.927C164.943 497.867 168.51 497.937 168.929 498.991C169.139 499.623 168.999 504.819 168.51 510.507C166.971 529.607 163.544 548.568 160.327 555.941C158.859 559.382 158.579 559.663 156.341 559.663C155.012 559.663 152.914 558.961 151.586 558.048C149.068 556.362 143.334 548.778 143.264 547.093C143.264 546.531 144.452 544.495 145.921 542.528C149.488 537.753 150.397 535.998 149.558 535.436C149.208 535.225 147.39 537.121 145.571 539.649C143.823 542.177 142.075 544.214 141.795 544.214C141.166 544.214 136.97 538.526 136.97 537.683C136.97 537.402 138.718 534.804 140.816 531.925C144.802 526.518 145.571 524.903 144.243 524.903C143.823 524.903 141.515 527.501 139.208 530.661L134.942 536.349L132.284 535.015C128.088 532.908 124.661 533.259 118.367 536.63C112.073 539.93 108.717 540.281 104.381 538.034C101.024 536.349 99.1357 534.312 95.0097 528.203C93.2614 525.605 90.6039 522.726 89.1353 521.743L69.6239 520.338L69.6357 520.338C70.7344 520.314 71.916 520.319 73.8556 520.33L74.2553 520.332C77.3629 520.35 82.3269 520.379 91.5194 520.338C109.982 520.268 113.682 519.285 101.024 519.636L69.6357 520.338L69.6239 520.338C66.6867 521.181 65.8475 521.111 62.2809 519.987L60.3775 518.091L60.8123 513.386L60.2529 518.091C59.7218 518.269 59.6499 518.497 59.8209 518.732C59.8284 518.742 59.8365 518.753 59.8449 518.763C57.2394 517.464 53.4439 515.556 52.6301 514.931C49.9027 512.895 50.5151 513.693 49.4296 513.054L48.9055 512.716C47.7264 511.099 48.0845 511.279 42.2101 505.732C38.5736 502.291 34.0978 497.656 32.2796 495.339C21.1602 481.084 19.1321 461.351 27.1045 444.919C30.3214 438.248 32.6992 435.299 44.1682 423.431C48.8537 418.586 55.7771 411.353 59.6235 407.28C63.5397 403.207 69.9037 396.606 73.8199 392.533L80.9531 385.16H57.3856C26.6849 385.16 14.8662 383.474 5.98466 377.786C-1.63806 372.941 -1.9178 363.461 4.7958 343.729C8.36239 333.476 9.48132 330.808 16.1949 317.044ZM65.4979 514.159L64.7486 515.648L64.7638 515.54C64.8879 514.663 64.8923 514.632 65.4979 514.159Z" fill="#0049FF"/>
<path d="M91.5244 513.767C91.5244 514.118 92.0139 514.399 92.5734 514.399C93.1329 514.399 93.6224 514.118 93.6224 513.767C93.6224 513.486 93.1329 513.205 92.5734 513.205C92.0139 513.205 91.5244 513.486 91.5244 513.767Z" fill="#0049FF"/>
<path d="M111.106 513.907C111.106 514.258 111.526 514.61 112.086 514.61C112.645 514.61 113.344 514.258 113.554 513.907C113.764 513.486 113.344 513.205 112.575 513.205C111.736 513.205 111.106 513.486 111.106 513.907Z" fill="#0049FF"/>
<path d="M119.498 514.539C119.498 515.593 119.918 516.014 120.967 516.014C122.715 516.014 122.505 513.697 120.687 513.346C119.848 513.205 119.498 513.556 119.498 514.539Z" fill="#0049FF"/>
<path d="M145.374 514.539C145.374 515.312 145.654 516.084 146.003 516.295C146.843 516.857 148.381 514.82 147.822 513.907C147.052 512.713 145.374 513.135 145.374 514.539Z" fill="#0049FF"/>
<path d="M547.629 493.964C542.664 496.422 536.44 502.391 537.559 503.514C539.377 505.34 553.084 496.492 553.084 493.543C553.084 491.717 551.965 491.787 547.629 493.964Z" fill="#0049FF"/>
<path d="M557.769 492.63C556.79 493.613 557.349 496.914 558.748 498.739C559.587 499.793 560.007 500.916 559.657 501.197C558.538 502.18 545.251 511.098 544.901 511.098C544.692 511.098 543.782 510.466 542.803 509.694C541.824 508.922 540.286 508.29 539.377 508.29C537.978 508.29 537.698 508.781 537.069 512.292C535.041 522.896 533.502 527.531 530.565 531.252C527.977 534.623 519.516 542.137 516.229 544.033C515.11 544.665 515.18 544.946 517.278 546.982L519.585 549.229L528.467 543.12C538.328 536.308 542.733 533.219 561.336 520.368C568.329 515.522 573.854 511.309 573.574 511.098C573.224 510.818 571.126 509.202 568.818 507.447C565.042 504.568 564.483 503.795 563.434 500.074C561.825 494.596 559.238 491.155 557.769 492.63ZM562.175 498.318C563.783 502.461 563.154 502.953 560.496 499.793C558.468 497.405 557.559 494.737 558.328 493.543C559.098 492.279 560.566 494.105 562.175 498.318ZM555.811 513.486C555.881 517.489 555.461 516.295 554.972 511.45C554.762 508.851 554.832 507.868 555.181 508.992C555.461 509.975 555.741 512.011 555.811 513.486ZM551.475 514.75C551.335 515.663 551.195 514.961 551.195 513.205C551.195 511.45 551.335 510.747 551.475 511.59C551.615 512.503 551.615 513.907 551.475 514.75ZM547.978 515.803C547.769 516.506 547.629 515.944 547.629 514.61C547.629 513.275 547.769 512.714 547.978 513.346C548.118 514.048 548.118 515.171 547.978 515.803ZM552.174 520.017C551.965 520.719 551.825 520.157 551.825 518.823C551.825 517.489 551.965 516.927 552.174 517.559C552.314 518.261 552.314 519.385 552.174 520.017ZM548.678 521.772C548.538 522.685 548.398 522.123 548.398 520.579C548.328 519.034 548.468 518.331 548.678 518.963C548.818 519.666 548.818 520.93 548.678 521.772Z" fill="#0049FF"/>
<path d="M235.936 497.616C235.446 498.177 277.756 540.592 278.805 540.592C279.225 540.592 279.644 540.522 279.714 540.381C279.714 540.311 279.854 538.485 280.064 536.378C280.343 533.078 279.994 531.393 277.966 526.056C275.798 520.438 273.07 509.975 271.392 500.565L270.833 497.405L260.832 497.194L250.832 496.984L248.454 499.161C247.125 500.284 245.796 501.267 245.587 501.267C245.307 501.267 244.188 500.425 243.139 499.371C241.321 497.616 236.985 496.562 235.936 497.616Z" fill="#0049FF"/>
<path d="M334.263 507.938C333.493 509.343 332.794 510.677 332.794 510.958C332.794 511.59 342.585 523.106 353.075 534.974C356.361 538.626 360.907 543.822 363.215 546.561C365.523 549.229 367.9 551.898 368.46 552.53C369.019 553.091 370.698 555.128 372.236 556.954C373.705 558.779 375.173 560.254 375.523 560.254C375.803 560.254 377.341 558.077 378.88 555.479C381.118 551.547 382.237 550.423 384.684 549.37C392.307 545.999 394.825 543.19 391.188 542.277C389.859 541.926 388.741 542.347 386.922 543.752C385.524 544.805 384.195 545.367 383.915 545.086C383.635 544.735 381.398 542.067 378.95 539.187C376.502 536.308 374.055 533.359 373.495 532.727C372.656 531.744 372.656 531.322 373.635 529.918C374.264 529.075 374.754 527.46 374.754 526.407C374.754 524.23 374.894 524.3 363.145 523.177C359.089 522.755 355.033 521.913 353.704 521.281C350.067 519.385 343.004 513.556 339.158 509.273L335.801 505.41L334.263 507.938ZM371.957 534.553C371.957 534.974 362.026 537.221 361.676 536.8C361.537 536.659 363.355 536.027 365.802 535.466C370.698 534.342 371.957 534.131 371.957 534.553ZM373.985 538.064C373.845 538.204 372.446 538.485 370.908 538.696C368.949 539.047 368.53 538.977 369.509 538.485C370.838 537.923 374.614 537.502 373.985 538.064ZM367.271 539.679C366.782 539.819 365.942 539.819 365.523 539.679C365.033 539.468 365.383 539.328 366.362 539.328C367.341 539.328 367.691 539.468 367.271 539.679ZM376.852 541.294C376.852 541.645 376.153 541.996 375.313 541.926C373.775 541.926 373.775 541.856 375.104 541.294C375.873 540.943 376.572 540.662 376.712 540.662C376.782 540.592 376.852 540.873 376.852 541.294ZM373.145 542.418C372.936 542.628 372.306 542.699 371.817 542.488C371.257 542.277 371.467 542.067 372.236 542.067C373.006 541.996 373.425 542.207 373.145 542.418ZM370.348 543.12C370.138 543.331 369.509 543.401 369.019 543.19C368.46 542.979 368.67 542.769 369.439 542.769C370.208 542.699 370.628 542.909 370.348 543.12ZM392.027 543.892C392.237 544.384 390.419 545.718 388.111 546.912C385.733 548.106 383.845 548.738 383.845 548.387C383.845 548.035 385.104 546.631 386.712 545.227C389.44 542.699 391.468 542.207 392.027 543.892Z" fill="#0049FF"/>
<path d="M330.696 512.082C330.696 513.065 373.495 562.501 373.915 562.01C374.125 561.799 366.152 552.179 364.264 550.423C363.845 550.072 354.544 539.258 338.809 521C334.682 516.154 331.116 512.011 330.976 511.871C330.836 511.73 330.696 511.801 330.696 512.082Z" fill="#0049FF"/>
<path d="M552.734 528.303C523.712 548.387 519.865 551.125 520.705 551.125C521.124 551.125 522.173 550.564 523.082 549.791C523.992 549.089 528.397 546.069 532.803 542.979C568.469 518.542 576.092 513.205 575.113 513.275C574.693 513.275 564.693 520.087 552.734 528.303Z" fill="#0049FF"/>
<path d="M379.301 523.738C378.602 524.862 382.378 530.761 386.154 534.412C389.441 537.643 392.239 538.766 392.239 536.87C392.239 535.185 388.043 529.497 384.406 526.196C380.77 522.896 380 522.545 379.301 523.738Z" fill="#0049FF"/>
<path d="M259.54 345.534V341.105H270.995V338.08H265.399C263.128 338.08 261.477 337.604 260.445 336.651C259.429 335.699 258.921 334.23 258.921 332.245C258.921 330.245 259.429 328.76 260.445 327.792C261.477 326.823 263.128 326.339 265.399 326.339H275.044V330.793H264.232V333.746H269.804C272.075 333.746 273.718 334.214 274.734 335.151C275.766 336.072 276.282 337.54 276.282 339.557C276.282 341.557 275.766 343.057 274.734 344.058C273.718 345.042 272.075 345.534 269.804 345.534H259.54Z" fill="#1E1E1E"/>
<path d="M285.588 345.534C284.397 345.534 283.397 345.447 282.587 345.272C281.794 345.082 281.151 344.772 280.658 344.343C280.182 343.899 279.841 343.311 279.634 342.581C279.428 341.851 279.325 340.93 279.325 339.819V334.627H277.11V330.936H279.325V326.839H284.278V330.936H288.422V334.627H284.278V341.867H288.422V345.534H285.588Z" fill="#1E1E1E"/>
<path d="M297.085 345.534C295.91 345.534 294.91 345.439 294.084 345.248C293.258 345.042 292.584 344.701 292.06 344.224C291.536 343.748 291.155 343.121 290.917 342.343C290.678 341.565 290.559 340.597 290.559 339.438V330.936H295.513V341.867H300.657V330.936H305.611V345.534H297.085Z" fill="#1E1E1E"/>
<path d="M318.049 334.627H312.833V341.867H318.049V334.627ZM314.405 345.534C313.23 345.534 312.23 345.439 311.404 345.248C310.579 345.042 309.904 344.701 309.38 344.224C308.856 343.748 308.475 343.121 308.237 342.343C307.999 341.565 307.88 340.597 307.88 339.438V336.913C307.88 335.754 307.999 334.794 308.237 334.031C308.475 333.254 308.856 332.642 309.38 332.198C309.904 331.737 310.579 331.412 311.404 331.221C312.23 331.031 313.23 330.936 314.405 330.936H318.049V326.339H323.002V345.534H314.405Z" fill="#1E1E1E"/>
<path d="M342.042 326.339V330.793H335.898V345.534H330.492V330.793H324.347V326.339H342.042Z" fill="#1E1E1E"/>
<path d="M343.038 334.389V336.699H348.254V334.389H343.038ZM343.038 339.914V341.867H352.731V345.534H344.872C343.697 345.534 342.697 345.439 341.871 345.248C341.046 345.042 340.371 344.701 339.847 344.224C339.323 343.748 338.942 343.121 338.704 342.343C338.466 341.565 338.347 340.597 338.347 339.438V336.794C338.347 335.635 338.466 334.674 338.704 333.912C338.942 333.134 339.323 332.515 339.847 332.055C340.371 331.594 341.046 331.277 341.871 331.102C342.697 330.912 343.697 330.816 344.872 330.816H346.42C347.595 330.816 348.595 330.92 349.421 331.126C350.246 331.317 350.921 331.65 351.445 332.126C351.969 332.603 352.35 333.23 352.588 334.008C352.826 334.786 352.945 335.754 352.945 336.913V339.914H343.038Z" fill="#1E1E1E"/>
<path d="M364.621 339.795H359.572V342.224H364.621V339.795ZM359.239 345.534C357.857 345.534 356.778 345.177 356 344.463C355.222 343.748 354.833 342.661 354.833 341.2V340.819C354.833 339.342 355.206 338.255 355.952 337.556C356.698 336.842 357.794 336.484 359.239 336.484H364.621V334.627H356.095V330.936H364.526C366.272 330.936 367.55 331.34 368.36 332.15C369.17 332.96 369.575 334.238 369.575 335.984V345.534H359.239Z" fill="#1E1E1E"/>
<path d="M384.316 334.627H376.79V341.867H384.316V345.534H378.362C377.187 345.534 376.187 345.439 375.361 345.248C374.536 345.042 373.861 344.701 373.337 344.224C372.813 343.748 372.432 343.121 372.194 342.343C371.956 341.565 371.837 340.597 371.837 339.438V336.913C371.837 335.754 371.956 334.794 372.194 334.031C372.432 333.254 372.813 332.642 373.337 332.198C373.861 331.737 374.536 331.412 375.361 331.221C376.187 331.031 377.187 330.936 378.362 330.936H384.316V334.627Z" fill="#1E1E1E"/>
<path d="M396.825 345.534V334.627H391.681V345.534H386.727V326.339H391.681V330.936H396.73C398.476 330.936 399.754 331.34 400.564 332.15C401.374 332.96 401.779 334.238 401.779 335.984V345.534H396.825Z" fill="#1E1E1E"/>
<path d="M258.04 319.197V300.267H285.668L303.064 315.36V319.197H258.04Z" fill="#1E1E1E"/>
<path d="M313.34 305.494C312.344 306.168 311.003 306.068 310.144 305.227L271.024 266.911C270.061 265.969 270.023 264.432 270.938 263.443L280.095 253.538C281.046 252.51 282.659 252.468 283.661 253.447L316.181 285.188C317.758 286.726 320.409 285.609 320.409 283.406V237.667C320.409 236.292 321.523 235.178 322.898 235.178H336.848C338.223 235.178 339.337 236.292 339.337 237.667V283.372C339.337 285.58 341.999 286.695 343.573 285.146L375.824 253.392C376.798 252.434 378.362 252.439 379.329 253.405L389.088 263.151C390.071 264.133 390.06 265.73 389.064 266.698L349.428 305.199C348.572 306.031 347.241 306.13 346.249 305.464C333.383 296.829 326.24 296.764 313.34 305.494Z" fill="#1E1E1E"/>
<path d="M357.383 315.36L372.759 300.267H402.607V319.197H359.493L357.383 315.36Z" fill="#1E1E1E"/>
</svg>
