<svg width="600" height="538" viewBox="0 0 600 538" fill="none" xmlns="http://www.w3.org/2000/svg">
<path d="M30.3982 6.24661C22.9027 9.57791 12.9088 18.3226 8.32827 25.8181C0.416414 39.1433 0 46.2223 0 266.505C0 478.46 0.416414 494.7 7.49544 507.608C11.6596 515.52 21.6535 525.514 29.5654 529.678C42.8906 536.757 59.5471 537.174 299.818 537.174C540.505 537.174 556.745 536.757 570.487 529.678C600.468 513.855 599.635 520.101 599.635 266.505C599.635 46.2223 599.219 39.1433 591.307 25.8181C575.067 -0.415985 580.48 0.000396729 298.985 0.000396729C89.1125 0.41684 41.2249 1.24966 30.3982 6.24661ZM572.569 27.0673C581.73 35.812 582.979 40.809 582.979 64.5445V91.6114H299.818H16.6565V64.5445C16.6565 40.809 17.9058 35.812 27.0669 27.0673L37.0608 16.657H299.818H562.575L572.569 27.0673ZM582.979 303.982V500.113L572.569 510.107L562.575 520.517H299.818H37.0608L27.0669 510.107L16.6565 500.113V303.982V108.268H299.818H582.979V303.982Z" fill="#0049FF"/>
<path d="M58.2984 43.724C47.4716 57.0492 63.7117 77.4535 78.2862 68.2924C92.4443 59.1313 87.4473 37.4778 70.7908 37.4778C66.6266 37.4778 61.2133 40.3927 58.2984 43.724Z" fill="#0049FF"/>
<path d="M120.76 43.724C109.934 57.0492 126.174 77.4535 140.748 68.2924C154.906 59.1313 149.909 37.4778 133.253 37.4778C129.089 37.4778 123.675 40.3927 120.76 43.724Z" fill="#0049FF"/>
<path d="M179.059 43.724C168.232 57.0492 184.472 77.4535 199.047 68.2924C213.205 59.1313 208.208 37.4778 191.552 37.4778C187.387 37.4778 181.974 40.3927 179.059 43.724Z" fill="#0049FF"/>
<path d="M201.963 325.219C200.298 327.301 201.963 332.715 205.711 336.879C211.541 343.541 211.541 344.791 205.294 351.037C199.881 356.45 199.465 359.365 203.212 363.113C206.96 366.861 209.875 366.444 215.705 361.031C222.784 354.785 223.617 354.785 230.279 361.031C235.693 366.861 238.191 367.277 242.355 363.113C246.519 358.949 246.103 356.45 240.273 351.037C234.027 344.374 234.027 343.541 240.273 336.462C250.267 325.219 240.69 316.058 229.863 326.052C222.784 332.715 221.535 332.715 216.538 326.885C210.291 319.389 205.711 318.973 201.963 325.219Z" fill="#0049FF"/>
<path d="M356.034 325.219C354.369 327.301 356.034 332.715 359.782 336.879C365.612 343.541 365.612 344.791 359.366 351.037C353.952 356.45 353.536 359.365 357.284 363.113C361.031 366.861 363.946 366.444 369.776 361.031C376.855 354.785 377.688 354.785 384.351 361.031C389.764 366.861 392.262 367.277 396.427 363.113C400.591 358.949 400.174 356.45 394.345 351.037C388.098 344.374 388.098 343.541 394.345 336.462C404.338 325.219 394.761 316.058 383.934 326.052C376.855 332.715 375.606 332.715 370.609 326.885C364.363 319.389 359.782 318.973 356.034 325.219Z" fill="#0049FF"/>
<path d="M231.109 403.922C225.28 413.083 235.274 416.414 269.003 416.414C303.565 416.414 303.982 416.414 303.982 426.824C303.982 432.654 306.48 443.897 309.812 451.393C317.307 468.882 336.046 475.128 351.869 464.718C363.945 456.806 367.277 445.563 365.611 420.162L364.362 401.84L298.985 400.59C257.76 400.174 232.775 401.007 231.109 403.922ZM348.954 433.903C347.705 449.311 346.04 452.226 337.711 453.058C325.635 454.724 320.638 448.062 320.638 429.739C320.638 417.247 321.471 416.414 335.629 416.414H350.204L348.954 433.903Z" fill="#0049FF"/>
</svg>
