<svg width="598" height="427" viewBox="0 0 598 427" fill="none" xmlns="http://www.w3.org/2000/svg">
<g filter="url(#filter0_dddddf_135_29)">
<path d="M643.599 66.3041C652.189 70.2635 658.833 77.6242 661.866 86.5827C712.795 237.016 722.296 397.977 647.842 448.906C477.72 543.772 450.323 455.768 226.531 395.803C145.578 374.112 89.8253 285.166 106.435 223.173C123.045 161.181 198.798 111.813 273.555 111.638C611.209 110.851 498.841 -0.425498 643.599 66.3041Z" fill="url(#paint0_linear_135_29)"/>
<path d="M460.913 468.969C487.762 477.412 512.292 481.023 540.066 477.176C567.946 473.315 599.951 461.82 641.497 438.703C673.325 416.606 689.318 369.164 689.873 304.955C690.424 241.263 675.673 164.787 650.5 90.4309C648.528 84.6079 644.187 79.7881 638.576 77.2017C602.361 60.5077 584.761 56.2721 573.034 57.096C561.615 57.8981 554.684 63.2472 537.145 73.9066C502.581 94.914 443.953 123.241 273.583 123.638C238.733 123.719 203.375 135.308 174.818 154.227C146.177 173.202 125.376 198.848 118.026 226.279C110.91 252.837 119.077 286.997 139.856 317.906C160.484 348.591 192.388 374.231 229.637 384.212C286.27 399.387 330.469 416.338 367.442 431.653C404.769 447.114 433.541 460.361 460.913 468.969Z" stroke="url(#paint1_linear_135_29)" stroke-width="24"/>
</g>
<defs>
<filter id="filter0_dddddf_135_29" x="0" y="7.62939e-06" width="746.888" height="651.213" filterUnits="userSpaceOnUse" color-interpolation-filters="sRGB">
<feFlood flood-opacity="0" result="BackgroundImageFix"/>
<feColorMatrix in="SourceAlpha" type="matrix" values="0 0 0 0 0 0 0 0 0 0 0 0 0 0 0 0 0 0 127 0" result="hardAlpha"/>
<feOffset dx="-3" dy="4.5"/>
<feGaussianBlur stdDeviation="6"/>
<feColorMatrix type="matrix" values="0 0 0 0 1 0 0 0 0 1 0 0 0 0 1 0 0 0 0.98 0"/>
<feBlend mode="normal" in2="BackgroundImageFix" result="effect1_dropShadow_135_29"/>
<feColorMatrix in="SourceAlpha" type="matrix" values="0 0 0 0 0 0 0 0 0 0 0 0 0 0 0 0 0 0 127 0" result="hardAlpha"/>
<feOffset dx="-10.5" dy="19.5"/>
<feGaussianBlur stdDeviation="11.25"/>
<feColorMatrix type="matrix" values="0 0 0 0 1 0 0 0 0 1 0 0 0 0 1 0 0 0 0.85 0"/>
<feBlend mode="normal" in2="effect1_dropShadow_135_29" result="effect2_dropShadow_135_29"/>
<feColorMatrix in="SourceAlpha" type="matrix" values="0 0 0 0 0 0 0 0 0 0 0 0 0 0 0 0 0 0 127 0" result="hardAlpha"/>
<feOffset dx="-22.5" dy="43.5"/>
<feGaussianBlur stdDeviation="15"/>
<feColorMatrix type="matrix" values="0 0 0 0 0 0 0 0 0 0.286275 0 0 0 0 1 0 0 0 0.5 0"/>
<feBlend mode="normal" in2="effect2_dropShadow_135_29" result="effect3_dropShadow_135_29"/>
<feColorMatrix in="SourceAlpha" type="matrix" values="0 0 0 0 0 0 0 0 0 0 0 0 0 0 0 0 0 0 127 0" result="hardAlpha"/>
<feOffset dx="-40.5" dy="78"/>
<feGaussianBlur stdDeviation="17.25"/>
<feColorMatrix type="matrix" values="0 0 0 0 0 0 0 0 0 0.286275 0 0 0 0 1 0 0 0 0.5 0"/>
<feBlend mode="normal" in2="effect3_dropShadow_135_29" result="effect4_dropShadow_135_29"/>
<feColorMatrix in="SourceAlpha" type="matrix" values="0 0 0 0 0 0 0 0 0 0 0 0 0 0 0 0 0 0 127 0" result="hardAlpha"/>
<feOffset dx="-64.5" dy="121.5"/>
<feGaussianBlur stdDeviation="19.5"/>
<feColorMatrix type="matrix" values="0 0 0 0 0 0 0 0 0 0.286275 0 0 0 0 1 0 0 0 0.02 0"/>
<feBlend mode="normal" in2="effect4_dropShadow_135_29" result="effect5_dropShadow_135_29"/>
<feBlend mode="normal" in="SourceGraphic" in2="effect5_dropShadow_135_29" result="shape"/>
<feGaussianBlur stdDeviation="22.5" result="effect6_foregroundBlur_135_29"/>
</filter>
<linearGradient id="paint0_linear_135_29" x1="99.4015" y1="-85.1084" x2="144.841" y2="490.677" gradientUnits="userSpaceOnUse">
<stop stop-color="#0049FF"/>
<stop offset="0.321248" stop-color="#1B52DC"/>
<stop offset="0.522303" stop-color="#01295F" stop-opacity="0.5"/>
<stop offset="0.698028" stop-color="#18447F" stop-opacity="0.15"/>
<stop offset="1" stop-color="#0049FF"/>
</linearGradient>
<linearGradient id="paint1_linear_135_29" x1="99.4015" y1="-85.1084" x2="172.212" y2="516.284" gradientUnits="userSpaceOnUse">
<stop stop-color="#0049FF"/>
<stop offset="0.321248" stop-color="#3F81DB" stop-opacity="0.5"/>
<stop offset="0.522303" stop-color="#0049FF" stop-opacity="0.98"/>
<stop offset="0.698028" stop-color="#3F81DB" stop-opacity="0.5"/>
<stop offset="1" stop-color="#0049FF"/>
</linearGradient>
</defs>
</svg>
