<svg width="526" height="421" viewBox="0 0 526 421" fill="none" xmlns="http://www.w3.org/2000/svg">
<g filter="url(#filter0_dddddf_141_348)">
<path d="M110.69 517.115C101.293 518.188 91.7553 515.776 84.3012 509.955C-32.8342 418.476 -122.869 297.652 -90.8957 219.518C-6.59455 57.4635 -60.0692 122.077 146.135 53.598C220.726 28.8268 430.601 59.9054 449.571 117.025C468.541 174.145 508.03 343.532 449.571 382.232C185.951 556.749 261.466 499.896 110.69 517.115Z" fill="url(#paint0_linear_141_348)"/>
<path d="M36.7759 97.2887C10.5801 103.609 -2.61591 106.632 -12.295 111.973C-20.8466 116.693 -27.1536 123.616 -36.8462 140.761C-46.7626 158.302 -58.7367 183.679 -79.9776 224.532C-93.3241 257.83 -81.6321 302.829 -49.1284 353.228C-16.9064 403.191 33.8338 455.315 91.6872 500.496C96.4703 504.232 102.808 505.936 109.328 505.192C147.76 500.803 171.893 501.134 190.297 501.317C208.576 501.499 219.861 501.464 234.405 497.155C249.321 492.735 268.22 483.622 300.419 464.231C332.509 444.905 377.002 415.883 442.947 372.226C453.596 365.177 461.135 351.189 465.113 330.259C469.04 309.596 469.076 284.256 466.656 257.622C461.822 204.417 447.449 148.709 438.183 120.807C436.789 116.61 433.263 111.638 426.57 106.19C419.944 100.796 410.898 95.497 399.73 90.4806C377.397 80.4498 348.063 72.2085 316.538 66.4045C285.09 60.6145 251.954 57.3396 222.221 57.0246C192.232 56.7069 166.691 59.4164 149.917 64.9867C97.9298 82.2514 62.2551 91.1413 36.7759 97.2887Z" stroke="url(#paint1_linear_141_348)" stroke-width="24"/>
</g>
<defs>
<filter id="filter0_dddddf_141_348" x="-200.912" y="7.62939e-06" width="726.214" height="677.863" filterUnits="userSpaceOnUse" color-interpolation-filters="sRGB">
<feFlood flood-opacity="0" result="BackgroundImageFix"/>
<feColorMatrix in="SourceAlpha" type="matrix" values="0 0 0 0 0 0 0 0 0 0 0 0 0 0 0 0 0 0 127 0" result="hardAlpha"/>
<feOffset dx="-3" dy="4.5"/>
<feGaussianBlur stdDeviation="6"/>
<feColorMatrix type="matrix" values="0 0 0 0 1 0 0 0 0 1 0 0 0 0 1 0 0 0 0.98 0"/>
<feBlend mode="normal" in2="BackgroundImageFix" result="effect1_dropShadow_141_348"/>
<feColorMatrix in="SourceAlpha" type="matrix" values="0 0 0 0 0 0 0 0 0 0 0 0 0 0 0 0 0 0 127 0" result="hardAlpha"/>
<feOffset dx="-10.5" dy="19.5"/>
<feGaussianBlur stdDeviation="11.25"/>
<feColorMatrix type="matrix" values="0 0 0 0 1 0 0 0 0 1 0 0 0 0 1 0 0 0 0.85 0"/>
<feBlend mode="normal" in2="effect1_dropShadow_141_348" result="effect2_dropShadow_141_348"/>
<feColorMatrix in="SourceAlpha" type="matrix" values="0 0 0 0 0 0 0 0 0 0 0 0 0 0 0 0 0 0 127 0" result="hardAlpha"/>
<feOffset dx="-22.5" dy="43.5"/>
<feGaussianBlur stdDeviation="15"/>
<feColorMatrix type="matrix" values="0 0 0 0 0 0 0 0 0 0.286275 0 0 0 0 1 0 0 0 0.5 0"/>
<feBlend mode="normal" in2="effect2_dropShadow_141_348" result="effect3_dropShadow_141_348"/>
<feColorMatrix in="SourceAlpha" type="matrix" values="0 0 0 0 0 0 0 0 0 0 0 0 0 0 0 0 0 0 127 0" result="hardAlpha"/>
<feOffset dx="-40.5" dy="78"/>
<feGaussianBlur stdDeviation="17.25"/>
<feColorMatrix type="matrix" values="0 0 0 0 0 0 0 0 0 0.286275 0 0 0 0 1 0 0 0 0.5 0"/>
<feBlend mode="normal" in2="effect3_dropShadow_141_348" result="effect4_dropShadow_141_348"/>
<feColorMatrix in="SourceAlpha" type="matrix" values="0 0 0 0 0 0 0 0 0 0 0 0 0 0 0 0 0 0 127 0" result="hardAlpha"/>
<feOffset dx="-64.5" dy="121.5"/>
<feGaussianBlur stdDeviation="19.5"/>
<feColorMatrix type="matrix" values="0 0 0 0 0 0 0 0 0 0.286275 0 0 0 0 1 0 0 0 0.02 0"/>
<feBlend mode="normal" in2="effect4_dropShadow_141_348" result="effect5_dropShadow_141_348"/>
<feBlend mode="normal" in="SourceGraphic" in2="effect5_dropShadow_141_348" result="shape"/>
<feGaussianBlur stdDeviation="22.5" result="effect6_foregroundBlur_141_348"/>
</filter>
<linearGradient id="paint0_linear_141_348" x1="614.106" y1="354.839" x2="281.501" y2="-72.6686" gradientUnits="userSpaceOnUse">
<stop stop-color="#0049FF"/>
<stop offset="0.321248" stop-color="#1B52DC"/>
<stop offset="0.522303" stop-color="#3F81DB" stop-opacity="0.5"/>
<stop offset="0.698028" stop-color="#3F81DB" stop-opacity="0.15"/>
<stop offset="1" stop-color="#0049FF"/>
</linearGradient>
<linearGradient id="paint1_linear_141_348" x1="614.106" y1="354.839" x2="246.855" y2="-78.6039" gradientUnits="userSpaceOnUse">
<stop stop-color="#0049FF"/>
<stop offset="0.321248" stop-color="#3F81DB" stop-opacity="0.5"/>
<stop offset="0.522303" stop-color="#0049FF" stop-opacity="0.98"/>
<stop offset="0.698028" stop-color="#3F81DB" stop-opacity="0.5"/>
<stop offset="1" stop-color="#0049FF"/>
</linearGradient>
</defs>
</svg>
