<svg width="581" height="496" viewBox="0 0 581 496" fill="none" xmlns="http://www.w3.org/2000/svg">
<g filter="url(#filter0_dddddf_265_323)">
<path d="M639.362 -24.8656C646.641 -18.8276 651.113 -10.03 651.713 -0.591099C661.15 147.733 630.649 295.295 551.007 323.3C373.876 367.942 370.419 281.574 182.251 172.935C114.184 133.637 85.2703 39.5323 115.363 -12.592C145.456 -64.7164 226.06 -91.0496 293.821 -73.0622C599.282 8.02257 525.387 -119.396 639.362 -24.8656Z" fill="url(#paint0_linear_265_323)"/>
<path d="M377.208 295.472C399.414 309.596 420.654 318.768 446.61 322.008C472.67 325.261 504.343 322.638 547.519 311.803C581.266 299.651 607.128 261.022 623.204 203.256C639.144 145.981 644.398 73.4283 639.737 0.170882C639.346 -5.97618 636.431 -11.7059 631.7 -15.6295C603.197 -39.27 588.552 -47.0959 578.021 -49.0809C567.736 -51.0193 560.38 -47.9164 541.758 -42.4857C505.155 -31.8108 444.955 -20.5279 290.743 -61.4639C259.305 -69.809 224.613 -67.9048 194.279 -57.741C163.851 -47.5455 138.956 -29.4576 125.756 -6.59235C113.006 15.491 112.073 48.1757 123.35 81.0919C134.539 113.752 157.112 144.564 188.251 162.543C235.907 190.057 271.859 216.161 301.649 239.02C331.742 262.111 354.539 281.054 377.208 295.472Z" stroke="url(#paint1_linear_265_323)" stroke-width="24"/>
</g>
<defs>
<filter id="filter0_dddddf_265_323" x="0" y="-123.703" width="698.371" height="619.516" filterUnits="userSpaceOnUse" color-interpolation-filters="sRGB">
<feFlood flood-opacity="0" result="BackgroundImageFix"/>
<feColorMatrix in="SourceAlpha" type="matrix" values="0 0 0 0 0 0 0 0 0 0 0 0 0 0 0 0 0 0 127 0" result="hardAlpha"/>
<feOffset dx="-3" dy="4.5"/>
<feGaussianBlur stdDeviation="6"/>
<feColorMatrix type="matrix" values="0 0 0 0 1 0 0 0 0 1 0 0 0 0 1 0 0 0 0.98 0"/>
<feBlend mode="normal" in2="BackgroundImageFix" result="effect1_dropShadow_265_323"/>
<feColorMatrix in="SourceAlpha" type="matrix" values="0 0 0 0 0 0 0 0 0 0 0 0 0 0 0 0 0 0 127 0" result="hardAlpha"/>
<feOffset dx="-10.5" dy="19.5"/>
<feGaussianBlur stdDeviation="11.25"/>
<feColorMatrix type="matrix" values="0 0 0 0 1 0 0 0 0 1 0 0 0 0 1 0 0 0 0.85 0"/>
<feBlend mode="normal" in2="effect1_dropShadow_265_323" result="effect2_dropShadow_265_323"/>
<feColorMatrix in="SourceAlpha" type="matrix" values="0 0 0 0 0 0 0 0 0 0 0 0 0 0 0 0 0 0 127 0" result="hardAlpha"/>
<feOffset dx="-22.5" dy="43.5"/>
<feGaussianBlur stdDeviation="15"/>
<feColorMatrix type="matrix" values="0 0 0 0 0 0 0 0 0 0.286275 0 0 0 0 1 0 0 0 0.5 0"/>
<feBlend mode="normal" in2="effect2_dropShadow_265_323" result="effect3_dropShadow_265_323"/>
<feColorMatrix in="SourceAlpha" type="matrix" values="0 0 0 0 0 0 0 0 0 0 0 0 0 0 0 0 0 0 127 0" result="hardAlpha"/>
<feOffset dx="-40.5" dy="78"/>
<feGaussianBlur stdDeviation="17.25"/>
<feColorMatrix type="matrix" values="0 0 0 0 0 0 0 0 0 0.286275 0 0 0 0 1 0 0 0 0.5 0"/>
<feBlend mode="normal" in2="effect3_dropShadow_265_323" result="effect4_dropShadow_265_323"/>
<feColorMatrix in="SourceAlpha" type="matrix" values="0 0 0 0 0 0 0 0 0 0 0 0 0 0 0 0 0 0 127 0" result="hardAlpha"/>
<feOffset dx="-64.5" dy="121.5"/>
<feGaussianBlur stdDeviation="19.5"/>
<feColorMatrix type="matrix" values="0 0 0 0 0 0 0 0 0 0.286275 0 0 0 0 1 0 0 0 0.02 0"/>
<feBlend mode="normal" in2="effect4_dropShadow_265_323" result="effect5_dropShadow_265_323"/>
<feBlend mode="normal" in="SourceGraphic" in2="effect5_dropShadow_265_323" result="shape"/>
<feGaussianBlur stdDeviation="22.5" result="effect6_foregroundBlur_265_323"/>
</filter>
<linearGradient id="paint0_linear_265_323" x1="183.819" y1="-293.557" x2="85.224" y2="239.048" gradientUnits="userSpaceOnUse">
<stop stop-color="#0049FF"/>
<stop offset="0.321248" stop-color="#1B52DC"/>
<stop offset="0.522303" stop-color="#3F81DB" stop-opacity="0.5"/>
<stop offset="0.698028" stop-color="#3F81DB" stop-opacity="0.15"/>
<stop offset="1" stop-color="#0049FF"/>
</linearGradient>
<linearGradient id="paint1_linear_265_323" x1="183.819" y1="-293.557" x2="103.803" y2="268.888" gradientUnits="userSpaceOnUse">
<stop stop-color="#0049FF"/>
<stop offset="0.321248" stop-color="#3F81DB" stop-opacity="0.5"/>
<stop offset="0.522303" stop-color="#0049FF" stop-opacity="0.98"/>
<stop offset="0.698028" stop-color="#3F81DB" stop-opacity="0.5"/>
<stop offset="1" stop-color="#0049FF"/>
</linearGradient>
</defs>
</svg>
