<svg width="167" height="192" viewBox="0 0 167 192" fill="none" xmlns="http://www.w3.org/2000/svg">
<g filter="url(#filter0_dddddf_188_286)">
<path d="M238.404 -2.52855C241.118 -0.27713 242.786 3.0033 243.009 6.52286C246.528 61.8296 235.155 116.852 205.458 127.295C139.41 143.941 138.121 111.736 67.9571 71.227C42.5766 56.5736 31.7952 21.484 43.0161 2.04797C54.2371 -17.3881 84.2925 -27.2071 109.559 -20.5C223.459 9.73471 195.905 -37.7769 238.404 -2.52855Z" fill="url(#paint0_linear_188_286)"/>
<path d="M140.652 116.918C148.933 122.184 156.853 125.606 166.531 126.814C176.245 128.026 188.051 127.049 204.143 123.012C216.733 118.486 226.382 104.081 232.379 82.5328C238.322 61.1763 240.282 34.1231 238.544 6.80711C238.398 4.51514 237.311 2.37889 235.547 0.915868C224.919 -7.89892 219.458 -10.8179 215.532 -11.5582C211.697 -12.281 208.953 -11.1238 202.01 -9.09893C188.361 -5.11851 165.914 -0.911178 108.412 -16.1752C96.6893 -19.2869 83.7533 -18.577 72.4425 -14.7872C61.0965 -10.9856 51.8135 -4.24069 46.8912 4.28531C42.1374 12.5196 41.7888 24.7069 45.9937 36.9805C50.1659 49.1586 58.5834 60.6485 70.1947 67.3522C87.9642 77.6115 101.37 87.3445 112.478 95.8678C123.699 104.478 132.2 111.542 140.652 116.918Z" stroke="url(#paint1_linear_188_286)" stroke-width="8.94907"/>
</g>
<defs>
<filter id="filter0_dddddf_188_286" x="-0.000109673" y="-39.3828" width="260.407" height="231.004" filterUnits="userSpaceOnUse" color-interpolation-filters="sRGB">
<feFlood flood-opacity="0" result="BackgroundImageFix"/>
<feColorMatrix in="SourceAlpha" type="matrix" values="0 0 0 0 0 0 0 0 0 0 0 0 0 0 0 0 0 0 127 0" result="hardAlpha"/>
<feOffset dx="-1.11863" dy="1.67795"/>
<feGaussianBlur stdDeviation="2.23727"/>
<feColorMatrix type="matrix" values="0 0 0 0 1 0 0 0 0 1 0 0 0 0 1 0 0 0 0.98 0"/>
<feBlend mode="normal" in2="BackgroundImageFix" result="effect1_dropShadow_188_286"/>
<feColorMatrix in="SourceAlpha" type="matrix" values="0 0 0 0 0 0 0 0 0 0 0 0 0 0 0 0 0 0 127 0" result="hardAlpha"/>
<feOffset dx="-3.91522" dy="7.27112"/>
<feGaussianBlur stdDeviation="4.19488"/>
<feColorMatrix type="matrix" values="0 0 0 0 1 0 0 0 0 1 0 0 0 0 1 0 0 0 0.85 0"/>
<feBlend mode="normal" in2="effect1_dropShadow_188_286" result="effect2_dropShadow_188_286"/>
<feColorMatrix in="SourceAlpha" type="matrix" values="0 0 0 0 0 0 0 0 0 0 0 0 0 0 0 0 0 0 127 0" result="hardAlpha"/>
<feOffset dx="-8.38976" dy="16.2202"/>
<feGaussianBlur stdDeviation="5.59317"/>
<feColorMatrix type="matrix" values="0 0 0 0 0 0 0 0 0 0.286275 0 0 0 0 1 0 0 0 0.5 0"/>
<feBlend mode="normal" in2="effect2_dropShadow_188_286" result="effect3_dropShadow_188_286"/>
<feColorMatrix in="SourceAlpha" type="matrix" values="0 0 0 0 0 0 0 0 0 0 0 0 0 0 0 0 0 0 127 0" result="hardAlpha"/>
<feOffset dx="-15.1016" dy="29.0845"/>
<feGaussianBlur stdDeviation="6.43215"/>
<feColorMatrix type="matrix" values="0 0 0 0 0 0 0 0 0 0.286275 0 0 0 0 1 0 0 0 0.5 0"/>
<feBlend mode="normal" in2="effect3_dropShadow_188_286" result="effect4_dropShadow_188_286"/>
<feColorMatrix in="SourceAlpha" type="matrix" values="0 0 0 0 0 0 0 0 0 0 0 0 0 0 0 0 0 0 127 0" result="hardAlpha"/>
<feOffset dx="-24.0506" dy="45.3047"/>
<feGaussianBlur stdDeviation="7.27112"/>
<feColorMatrix type="matrix" values="0 0 0 0 0 0 0 0 0 0.286275 0 0 0 0 1 0 0 0 0.02 0"/>
<feBlend mode="normal" in2="effect4_dropShadow_188_286" result="effect5_dropShadow_188_286"/>
<feBlend mode="normal" in="SourceGraphic" in2="effect5_dropShadow_188_286" result="shape"/>
<feGaussianBlur stdDeviation="8.38976" result="effect6_foregroundBlur_188_286"/>
</filter>
<linearGradient id="paint0_linear_188_286" x1="68.5417" y1="-102.718" x2="31.7779" y2="95.8791" gradientUnits="userSpaceOnUse">
<stop stop-color="#0049FF"/>
<stop offset="0.321248" stop-color="#1B52DC"/>
<stop offset="0.522303" stop-color="#3F81DB" stop-opacity="0.5"/>
<stop offset="0.698028" stop-color="#3F81DB" stop-opacity="0.15"/>
<stop offset="1" stop-color="#0049FF"/>
</linearGradient>
<linearGradient id="paint1_linear_188_286" x1="68.5417" y1="-102.718" x2="38.7058" y2="107.006" gradientUnits="userSpaceOnUse">
<stop stop-color="#0049FF"/>
<stop offset="0.321248" stop-color="#3F81DB" stop-opacity="0.5"/>
<stop offset="0.522303" stop-color="#0049FF" stop-opacity="0.98"/>
<stop offset="0.698028" stop-color="#3F81DB" stop-opacity="0.5"/>
<stop offset="1" stop-color="#0049FF"/>
</linearGradient>
</defs>
</svg>
